<svg width="56" height="11" viewBox="0 0 56 11" fill="none" xmlns="http://www.w3.org/2000/svg">
<path d="M9.05609 10.784L5.58409 8.24L2.14409 10.784L3.48809 6.656L8.79019e-05 4.048H4.28809L5.58409 4.76837e-06L6.88009 4.048H11.1841L7.72809 6.656L9.05609 10.784ZM20.2561 10.784L16.7841 8.24L13.3441 10.784L14.6881 6.656L11.2001 4.048H15.4881L16.7841 4.76837e-06L18.0801 4.048H22.3841L18.9281 6.656L20.2561 10.784ZM31.4561 10.784L27.9841 8.24L24.5441 10.784L25.8881 6.656L22.4001 4.048H26.6881L27.9841 4.76837e-06L29.2801 4.048H33.5841L30.1281 6.656L31.4561 10.784ZM42.6561 10.784L39.1841 8.24L35.7441 10.784L37.0881 6.656L33.6001 4.048H37.8881L39.1841 4.76837e-06L40.4801 4.048H44.7841L41.3281 6.656L42.6561 10.784ZM53.8561 10.784L50.3841 8.24L46.9441 10.784L48.2881 6.656L44.8001 4.048H49.0881L50.3841 4.76837e-06L51.6801 4.048H55.9841L52.5281 6.656L53.8561 10.784Z" fill="#1E1E1E"/>
</svg>
