<?xml version="1.0" encoding="UTF-8"?>
<svg id="a" data-name="Pillars" xmlns="http://www.w3.org/2000/svg" width="90" height="16" viewBox="0 0 90 16">
  <defs>
    <style>
      .b {
        fill: #231f20;
      }
    </style>
  </defs>
  <path class="b" d="m7.0473,12.53939l-.87988-3.05664H1.87933l-.89551,3.05664H.02387L3.49554.97103h1.12012l3.44043,11.56836h-1.00879ZM4.02387,2.0267l-1.87207,6.62402h3.74414l-1.87207-6.62402Z"/>
  <path class="b" d="m14.80707,8.31478c0,.32031-.00781.65625-.02344,1.00879-.0166.35156-.05371.69531-.1123,1.03125s-.14941.65137-.27246.94434c-.12207.29395-.29004.54688-.50391.75977-.18164.18164-.40234.32812-.66406.44043-.26074.1123-.57812.16797-.95215.16797-.45801,0-.83398-.08789-1.12793-.26465-.29297-.17578-.5625-.4502-.80762-.82324l-.01562.95996h-.88086c.02148-.25586.03809-.51465.04883-.77637.00977-.26074.01562-.51953.01562-.77539V.97103h.91211v4.35254c.27734-.36328.56543-.62402.86426-.78418.29785-.16016.65039-.24023,1.05566-.24023.37305,0,.69043.05566.95215.16797.26074.1123.48242.25879.66406.44043.19141.19141.34375.4209.45605.6875.11133.2666.19727.55176.25586.85645.05859.30371.0957.61523.1123.93555.01562.32031.02344.62988.02344.92773Zm-.92773.0166c0-.21387-.00293-.44238-.00781-.68848-.00586-.24512-.02441-.49316-.05664-.74414-.03125-.25-.08203-.4873-.15137-.71191-.06934-.22363-.17383-.4209-.3125-.5918-.12793-.14941-.28223-.27441-.46387-.37598s-.40527-.15234-.67188-.15234c-.27734,0-.51758.05371-.71973.16016-.20312.10742-.37402.24023-.5127.40039-.14941.18164-.2666.39453-.35156.63965-.08594.24609-.14648.50195-.18457.76855-.03711.2666-.05859.5332-.06348.7998-.00586.2666-.00781.51172-.00781.73633v.66309c0,.22949.0127.45898.04004.68848.02637.22949.06641.44824.12012.65625.05273.20801.13281.39746.23926.56738.13867.21387.32031.38965.54395.52832.22461.13867.52246.20801.89648.20801.27734,0,.50684-.05371.6875-.16016.18164-.10645.33105-.24512.44824-.41602.23438-.30859.38184-.69336.44043-1.15137.05859-.45898.08789-1.06738.08789-1.82422Z"/>
  <path class="b" d="m21.51117,8.55502c0,.66211-.03418,1.25098-.10352,1.76855-.06934.5166-.20605.95117-.4082,1.30371-.20312.35156-.48047.61816-.83203.7998s-.80566.27246-1.36035.27246c-.58691,0-1.05273-.0957-1.39941-.28809s-.61133-.46973-.79199-.83203c-.18164-.3623-.29883-.79492-.35254-1.2959-.05371-.50195-.08008-1.06641-.08008-1.69629,0-.58691.02637-1.1416.08008-1.66406s.17578-.97852.36816-1.36816c.19238-.38867.46973-.69629.83203-.91992s.84766-.33594,1.45605-.33594,1.08496.10645,1.43164.32031c.34668.21289.60547.50684.77637.87988s.27734.82129.32031,1.34375c.04199.52246.06348,1.09375.06348,1.71191Zm-.94336-.27148c0-.33105-.00586-.68555-.0166-1.06445s-.06348-.73047-.16016-1.05566c-.0957-.3252-.25879-.59473-.4873-.80859-.22949-.21289-.56348-.31934-1-.31934-.45898,0-.81152.11133-1.05664.33594-.24512.22363-.4209.49805-.52734.82324-.10742.32617-.16602.68066-.17676,1.06445s-.01562.73633-.01562,1.05566v.92871c0,.30957.01074.62402.03223.94336.02148.32031.08789.61426.2002.87988.11133.26758.28223.4834.51172.64844s.55176.24805.96777.24805c.39453,0,.70703-.08008.93652-.24023.22852-.16016.40234-.36816.51953-.62402s.19238-.54395.22363-.86426c.03223-.31934.04883-.63965.04883-.95996v-.99121Z"/>
  <path class="b" d="m25.5434,12.53939h-1.04004l-2.28809-8.06445h.99121l1.84082,7.04004,1.8877-7.04004h.87988l-2.27148,8.06445Z"/>
  <path class="b" d="m29.46332,8.65072v.46484c0,.44727.02148.84766.06445,1.19922.04199.35254.125.65137.24707.89648.12305.24512.29688.43164.52051.55957s.51758.19238.87988.19238c.3418,0,.62109-.05078.83984-.15234.21875-.10059.38965-.2373.5127-.4082.12207-.16992.20801-.37012.25586-.59961s.07715-.47168.08789-.72754h.91211c-.02148.37305-.0752.7168-.16016,1.03125-.08594.31543-.22949.59277-.43262.83203-.20215.24023-.46582.42676-.79199.56055-.3252.13281-.7334.2002-1.22363.2002-.57617,0-1.03711-.09863-1.38379-.29688-.34668-.19629-.61328-.46582-.7998-.80762-.1875-.34082-.3125-.73828-.37598-1.19238-.06445-.45312-.09668-.93555-.09668-1.44727,0-.5332.0166-1.07715.04883-1.63184.03125-.55469.13281-1.05664.30371-1.50488.16992-.44727.44238-.8125.81543-1.0957.37402-.28223.90137-.42383,1.58398-.42383.5127,0,.93359.08301,1.26465.24805.33008.16504.5918.39746.78418.69629.19141.29883.3252.64746.39941,1.04785.07422.39941.1123.83496.1123,1.30371v1.05566h-4.36816Zm3.42383-.73535v-.45605c0-.19727-.00488-.37598-.01562-.53613-.02148-.24512-.06152-.48047-.12012-.7041s-.14941-.42383-.27246-.59961c-.12207-.17676-.2793-.31738-.47168-.4248-.19238-.10645-.43164-.15918-.71973-.15918-.59766,0-1.02734.17578-1.28809.52734-.26172.35254-.41895.78418-.47168,1.2959-.03223.35254-.04883.7041-.04883,1.05664h3.4082Z"/>
  <path class="b" d="m44.79047,12.53939l-.87988-3.05664h-4.28809l-.89551,3.05664h-.95996l3.47168-11.56836h1.12012l3.44043,11.56836h-1.00879Zm-3.02344-10.5127l-1.87207,6.62402h3.74414l-1.87207-6.62402Z"/>
  <path class="b" d="m49.22308,12.53939h-1.04004l-2.28809-8.06445h.99121l1.84082,7.04004,1.8877-7.04004h.87988l-2.27148,8.06445Z"/>
  <path class="b" d="m53.46332,8.65072v.46484c0,.44727.02148.84766.06445,1.19922.04199.35254.125.65137.24707.89648.12305.24512.29688.43164.52051.55957s.51758.19238.87988.19238c.3418,0,.62109-.05078.83984-.15234.21875-.10059.38965-.2373.5127-.4082.12207-.16992.20801-.37012.25586-.59961s.07715-.47168.08789-.72754h.91211c-.02148.37305-.0752.7168-.16016,1.03125-.08594.31543-.22949.59277-.43262.83203-.20215.24023-.46582.42676-.79199.56055-.3252.13281-.7334.2002-1.22363.2002-.57617,0-1.03711-.09863-1.38379-.29688-.34668-.19629-.61328-.46582-.7998-.80762-.1875-.34082-.3125-.73828-.37598-1.19238-.06445-.45312-.09668-.93555-.09668-1.44727,0-.5332.0166-1.07715.04883-1.63184.03125-.55469.13281-1.05664.30371-1.50488.16992-.44727.44238-.8125.81543-1.0957.37402-.28223.90137-.42383,1.58398-.42383.5127,0,.93359.08301,1.26465.24805.33008.16504.5918.39746.78418.69629.19141.29883.3252.64746.39941,1.04785.07422.39941.1123.83496.1123,1.30371v1.05566h-4.36816Zm3.42383-.73535v-.45605c0-.19727-.00488-.37598-.01562-.53613-.02148-.24512-.06152-.48047-.12012-.7041s-.14941-.42383-.27246-.59961c-.12207-.17676-.2793-.31738-.47168-.4248-.19238-.10645-.43164-.15918-.71973-.15918-.59766,0-1.02734.17578-1.28809.52734-.26172.35254-.41895.78418-.47168,1.2959-.03223.35254-.04883.7041-.04883,1.05664h3.4082Z"/>
  <path class="b" d="m62.59906,5.21127c-.62891,0-1.10156.2002-1.41602.59961-.31445.40039-.47168.89355-.47168,1.48047v5.24805h-.91211v-6.5918c0-.24609-.00586-.49121-.01562-.73633-.01074-.24512-.02734-.49023-.04883-.73633h.88086l.01562,1.07227c.21289-.38379.49609-.68848.84766-.91211.35254-.22363.74121-.33594,1.16797-.33594h.08789c.03809,0,.07227.00586.10449.01562v.91211c-.05371-.00977-.13379-.01562-.24023-.01562Z"/>
  <path class="b" d="m67.95941,12.53939v-1.12012c-.14941.21289-.30176.39941-.45605.55957s-.31934.29102-.49609.39258c-.17578.10156-.36719.17578-.5752.22363s-.44629.07227-.71289.07227c-.71387,0-1.24805-.22461-1.59961-.67188-.35156-.44824-.52832-1.00781-.52832-1.68066,0-.62891.13086-1.12207.39258-1.47949.26074-.35742.59668-.62402,1.00781-.7998.41016-.17676.86914-.28809,1.37598-.33594.50684-.04883,1.01074-.07227,1.51172-.07227v-.30371c0-.28809-.00781-.56836-.02344-.84082-.0166-.27148-.06934-.51367-.16016-.72754-.09082-.21289-.23535-.38379-.43262-.51172s-.47656-.19238-.83984-.19238c-.19141,0-.38086.02441-.56738.07227-.1875.04785-.35254.125-.49609.23145-.14453.10742-.26172.24316-.35254.4082-.09082.16602-.13574.36035-.13574.58398v.06445h-.92773v-.04785c0-.36328.06641-.67285.2002-.92871.13281-.25586.31445-.46875.54395-.63965.22852-.1709.49609-.2959.7998-.37598s.62598-.12012.96777-.12012c.46973,0,.85352.05859,1.15234.17578.29785.11816.53613.28809.71191.5127.17578.22363.29785.50098.36816.83105.06934.33105.10352.71484.10352,1.15234v3.04004c0,.84277.0166,1.68555.04785,2.52832h-.87988Zm-.08008-4.17578h-.30371c-.3418,0-.69043.01562-1.04785.04785-.35742.03125-.67969.11133-.96777.23926-.28809.12891-.52637.31543-.71191.56055-.1875.24512-.28027.58105-.28027,1.00781,0,.22363.02344.4375.07227.63965.04785.20312.125.38184.23145.53613.10645.15527.24805.28027.42383.37598.17578.09668.38672.14453.63184.14453.38477,0,.70215-.07715.95215-.23242.25098-.1543.45117-.35449.60059-.59961s.25293-.52051.31152-.82422.08789-.61035.08789-.91992v-.97559Z"/>
  <path class="b" d="m75.81586,4.47494c-.01074.24609-.02148.47461-.03223.68848-.01074.21289-.0166.44238-.0166.6875v7.04004c0,.92871-.20215,1.63477-.60742,2.12012s-1.10449.72852-2.0957.72852c-1.55762,0-2.35254-.76855-2.38477-2.30371h.94434c0,.51172.10645.90332.32031,1.17578.21289.27148.5918.4082,1.13574.4082.40527,0,.72559-.06738.95996-.2002.23438-.13379.41016-.31543.52832-.54395.11719-.22949.19141-.49609.22363-.80078.03223-.30371.04785-.62598.04785-.96777v-1.02441c-.24512.35254-.51465.60352-.80762.75195-.29395.15039-.65332.22461-1.08008.22461-.57617,0-1.0293-.11719-1.36035-.35254-.33008-.23438-.57812-.54102-.74414-.91992-.16504-.37793-.26953-.7998-.31152-1.26367-.04297-.46387-.06445-.9248-.06445-1.38379,0-.50195.0293-1.00586.08789-1.5127.05859-.50586.17871-.96191.36035-1.36719s.4375-.7334.76855-.98438c.33008-.25.76758-.37598,1.31152-.37598.52246,0,.91992.09082,1.19238.27246.27148.18066.51367.46875.72754.86328l.01562-.95996h.88086Zm-.92871,3.60059c0-.33105-.0127-.67285-.04004-1.02441-.02637-.35156-.09863-.6748-.21582-.96777s-.29297-.53613-.52734-.72852c-.23535-.19141-.56055-.28809-.97656-.28809-.4375,0-.77344.12305-1.00781.36816-.23438.24609-.40527.54688-.51172.9043-.10742.35742-.16797.73633-.18457,1.13574-.01562.40039-.02344.75488-.02344,1.06445,0,.34082.00781.70117.02344,1.08008.0166.37891.07422.72266.17578,1.03125.10156.30957.26172.56641.48047.76855s.53027.30371.93555.30371c.49121,0,.86426-.125,1.12012-.37598.25586-.25.44043-.55957.55273-.92773.11133-.36816.17285-.7627.18359-1.18457.01074-.4209.01562-.80762.01562-1.15918Z"/>
  <path class="b" d="m78.39105,8.65072v.46484c0,.44727.02148.84766.06445,1.19922.04199.35254.125.65137.24707.89648.12305.24512.29688.43164.52051.55957s.51758.19238.87988.19238c.3418,0,.62109-.05078.83984-.15234.21875-.10059.38965-.2373.5127-.4082.12207-.16992.20801-.37012.25586-.59961s.07715-.47168.08789-.72754h.91211c-.02148.37305-.0752.7168-.16016,1.03125-.08594.31543-.22949.59277-.43262.83203-.20215.24023-.46582.42676-.79199.56055-.3252.13281-.7334.2002-1.22363.2002-.57617,0-1.03711-.09863-1.38379-.29688-.34668-.19629-.61328-.46582-.7998-.80762-.1875-.34082-.3125-.73828-.37598-1.19238-.06445-.45312-.09668-.93555-.09668-1.44727,0-.5332.0166-1.07715.04883-1.63184.03125-.55469.13281-1.05664.30371-1.50488.16992-.44727.44238-.8125.81543-1.0957.37402-.28223.90137-.42383,1.58398-.42383.5127,0,.93359.08301,1.26465.24805.33008.16504.5918.39746.78418.69629.19141.29883.3252.64746.39941,1.04785.07422.39941.1123.83496.1123,1.30371v1.05566h-4.36816Zm3.42383-.73535v-.45605c0-.19727-.00488-.37598-.01562-.53613-.02148-.24512-.06152-.48047-.12012-.7041s-.14941-.42383-.27246-.59961c-.12207-.17676-.2793-.31738-.47168-.4248-.19238-.10645-.43164-.15918-.71973-.15918-.59766,0-1.02734.17578-1.28809.52734-.26172.35254-.41895.78418-.47168,1.2959-.03223.35254-.04883.7041-.04883,1.05664h3.4082Z"/>
</svg>