<?xml version="1.0" encoding="UTF-8"?>
<svg id="a" data-name="Pillars" xmlns="http://www.w3.org/2000/svg" width="90" height="16" viewBox="0 0 90 16">
  <defs>
    <style>
      .b {
        fill: #231f20;
      }
    </style>
  </defs>
  <path class="b" d="m7.04712,12.56892l-.87988-3.05664H1.87964l-.89551,3.05664H.02417L3.49585,1.00056h1.11963l3.44043,11.56836h-1.00879ZM4.02368,2.05622l-1.87158,6.62402h3.74365l-1.87207-6.62402Z"/>
  <path class="b" d="m11.47974,12.56892h-1.04004l-2.28809-8.06445h.99121l1.84082,7.04004,1.8877-7.04004h.87988l-2.27148,8.06445Z"/>
  <path class="b" d="m15.71997,8.68025v.46484c0,.44727.02148.84766.06445,1.19922.04199.35254.125.65137.24707.89648.12305.24512.29688.43164.52051.55957s.51758.19238.87988.19238c.3418,0,.62109-.05078.83984-.15234.21875-.10059.38965-.2373.5127-.4082.12207-.16992.20801-.37012.25586-.59961s.07715-.47168.08789-.72754h.91211c-.02148.37305-.0752.7168-.16016,1.03125-.08594.31543-.22949.59277-.43262.83203-.20215.24023-.46582.42676-.79199.56055-.3252.13281-.7334.2002-1.22363.2002-.57617,0-1.03711-.09863-1.38379-.29688-.34668-.19629-.61328-.46582-.7998-.80762-.1875-.34082-.3125-.73828-.37598-1.19238-.06445-.45312-.09668-.93555-.09668-1.44727,0-.5332.0166-1.07715.04883-1.63184.03125-.55469.13281-1.05664.30371-1.50488.16992-.44727.44238-.8125.81543-1.0957.37402-.28223.90137-.42383,1.58398-.42383.5127,0,.93359.08301,1.26465.24805.33008.16504.5918.39746.78418.69629.19141.29883.3252.64746.39941,1.04785.07422.39941.1123.83496.1123,1.30371v1.05566h-4.36816Zm3.42383-.73535v-.45605c0-.19727-.00488-.37598-.01562-.53613-.02148-.24512-.06152-.48047-.12012-.7041s-.14941-.42383-.27246-.59961c-.12207-.17676-.2793-.31738-.47168-.4248-.19238-.10645-.43164-.15918-.71973-.15918-.59766,0-1.02734.17578-1.28809.52734-.26172.35254-.41895.78418-.47168,1.2959-.03223.35254-.04883.7041-.04883,1.05664h3.4082Z"/>
  <path class="b" d="m24.85571,5.24079c-.62891,0-1.10156.2002-1.41602.59961-.31445.40039-.47168.89355-.47168,1.48047v5.24805h-.91211v-6.5918c0-.24609-.00586-.49121-.01562-.73633-.01074-.24512-.02734-.49023-.04883-.73633h.88086l.01562,1.07227c.21289-.38379.49609-.68848.84766-.91211.35254-.22363.74121-.33594,1.16797-.33594h.08789c.03809,0,.07227.00586.10449.01562v.91211c-.05371-.00977-.13379-.01562-.24023-.01562Z"/>
  <path class="b" d="m30.21509,12.56892v-1.12012c-.14941.21289-.30176.39941-.45605.55957s-.31934.29102-.49609.39258c-.17578.10156-.36719.17578-.5752.22363s-.44629.07227-.71289.07227c-.71387,0-1.24805-.22461-1.59961-.67188-.35156-.44824-.52832-1.00781-.52832-1.68066,0-.62891.13086-1.12207.39258-1.47949.26074-.35742.59668-.62402,1.00781-.7998.41016-.17676.86914-.28809,1.37598-.33594.50684-.04883,1.01074-.07227,1.51172-.07227v-.30371c0-.28809-.00781-.56836-.02344-.84082-.0166-.27148-.06934-.51367-.16016-.72754-.09082-.21289-.23535-.38379-.43262-.51172s-.47656-.19238-.83984-.19238c-.19141,0-.38086.02441-.56738.07227-.1875.04785-.35254.125-.49609.23145-.14453.10742-.26172.24316-.35254.4082-.09082.16602-.13574.36035-.13574.58398v.06445h-.92773v-.04785c0-.36328.06641-.67285.2002-.92871.13281-.25586.31445-.46875.54395-.63965.22852-.1709.49609-.2959.7998-.37598s.62598-.12012.96777-.12012c.46973,0,.85352.05859,1.15234.17578.29785.11816.53613.28809.71191.5127.17578.22363.29785.50098.36816.83105.06934.33105.10352.71484.10352,1.15234v3.04004c0,.84277.0166,1.68555.04785,2.52832h-.87988Zm-.08008-4.17578h-.30371c-.3418,0-.69043.01562-1.04785.04785-.35742.03125-.67969.11133-.96777.23926-.28809.12891-.52637.31543-.71191.56055-.1875.24512-.28027.58105-.28027,1.00781,0,.22363.02344.4375.07227.63965.04785.20312.125.38184.23145.53613.10645.15527.24805.28027.42383.37598.17578.09668.38672.14453.63184.14453.38477,0,.70215-.07715.95215-.23242.25098-.1543.45117-.35449.60059-.59961s.25293-.52051.31152-.82422.08789-.61035.08789-.91992v-.97559Z"/>
  <path class="b" d="m38.07251,4.50447c-.01074.24609-.02148.47461-.03223.68848-.01074.21289-.0166.44238-.0166.6875v7.04004c0,.92871-.20215,1.63477-.60742,2.12012s-1.10449.72852-2.0957.72852c-1.55762,0-2.35254-.76855-2.38477-2.30371h.94434c0,.51172.10645.90332.32031,1.17578.21289.27148.5918.4082,1.13574.4082.40527,0,.72559-.06738.95996-.2002.23438-.13379.41016-.31543.52832-.54395.11719-.22949.19141-.49609.22363-.80078.03223-.30371.04785-.62598.04785-.96777v-1.02441c-.24512.35254-.51465.60352-.80762.75195-.29395.15039-.65332.22461-1.08008.22461-.57617,0-1.0293-.11719-1.36035-.35254-.33008-.23438-.57812-.54102-.74414-.91992-.16504-.37793-.26953-.7998-.31152-1.26367-.04297-.46387-.06445-.9248-.06445-1.38379,0-.50195.0293-1.00586.08789-1.5127.05859-.50586.17871-.96191.36035-1.36719s.4375-.7334.76855-.98438c.33008-.25.76758-.37598,1.31152-.37598.52246,0,.91992.09082,1.19238.27246.27148.18066.51367.46875.72754.86328l.01562-.95996h.88086Zm-.92871,3.60059c0-.33105-.0127-.67285-.04004-1.02441-.02637-.35156-.09863-.6748-.21582-.96777s-.29297-.53613-.52734-.72852c-.23535-.19141-.56055-.28809-.97656-.28809-.4375,0-.77344.12305-1.00781.36816-.23438.24609-.40527.54688-.51172.9043-.10742.35742-.16797.73633-.18457,1.13574-.01562.40039-.02344.75488-.02344,1.06445,0,.34082.00781.70117.02344,1.08008.0166.37891.07422.72266.17578,1.03125.10156.30957.26172.56641.48047.76855s.53027.30371.93555.30371c.49121,0,.86426-.125,1.12012-.37598.25586-.25.44043-.55957.55273-.92773.11133-.36816.17285-.7627.18359-1.18457.01074-.4209.01562-.80762.01562-1.15918Z"/>
  <path class="b" d="m40.64771,8.68025v.46484c0,.44727.02148.84766.06445,1.19922.04199.35254.125.65137.24707.89648.12305.24512.29688.43164.52051.55957s.51758.19238.87988.19238c.3418,0,.62109-.05078.83984-.15234.21875-.10059.38965-.2373.5127-.4082.12207-.16992.20801-.37012.25586-.59961s.07715-.47168.08789-.72754h.91211c-.02148.37305-.0752.7168-.16016,1.03125-.08594.31543-.22949.59277-.43262.83203-.20215.24023-.46582.42676-.79199.56055-.3252.13281-.7334.2002-1.22363.2002-.57617,0-1.03711-.09863-1.38379-.29688-.34668-.19629-.61328-.46582-.7998-.80762-.1875-.34082-.3125-.73828-.37598-1.19238-.06445-.45312-.09668-.93555-.09668-1.44727,0-.5332.0166-1.07715.04883-1.63184.03125-.55469.13281-1.05664.30371-1.50488.16992-.44727.44238-.8125.81543-1.0957.37402-.28223.90137-.42383,1.58398-.42383.5127,0,.93359.08301,1.26465.24805.33008.16504.5918.39746.78418.69629.19141.29883.3252.64746.39941,1.04785.07422.39941.1123.83496.1123,1.30371v1.05566h-4.36816Zm3.42383-.73535v-.45605c0-.19727-.00488-.37598-.01562-.53613-.02148-.24512-.06152-.48047-.12012-.7041s-.14941-.42383-.27246-.59961c-.12207-.17676-.2793-.31738-.47168-.4248-.19238-.10645-.43164-.15918-.71973-.15918-.59766,0-1.02734.17578-1.28809.52734-.26172.35254-.41895.78418-.47168,1.2959-.03223.35254-.04883.7041-.04883,1.05664h3.4082Z"/>
  <path class="b" d="m49.09692.9322c1.53711,0,2.81738,1.24805,2.81738,2.78516,0,.73633-.25586,1.37598-.68848,1.84082l.7207.78418-.46484.43164-.75195-.75195c-.48047.30371-1.02441.51172-1.63281.51172-1.52051,0-2.80078-1.24805-2.80078-2.81641,0-1.53711,1.2959-2.78516,2.80078-2.78516Zm1.15234,4.59375l-1.24805-1.24902.47949-.46387,1.26465,1.29688c.32031-.38477.5127-.84863.5127-1.39258,0-1.16895-.91211-2.16113-2.16113-2.16113-1.24805,0-2.14453.99219-2.14453,2.16113,0,1.21582.99219,2.16016,2.14453,2.16016.44824,0,.83203-.12793,1.15234-.35156Z"/>
</svg>