<?xml version="1.0" encoding="UTF-8"?>
<svg id="a" data-name="Pillars" xmlns="http://www.w3.org/2000/svg" width="90" height="16" viewBox="0 0 90 16">
  <defs>
    <style>
      .b {
        fill: #231f20;
      }
    </style>
  </defs>
  <path class="b" d="m5.88812,9.41716c0,.56543-.06152,1.04785-.18457,1.44727-.12305.40039-.31152.72559-.56738.97656-.25684.25098-.58398.43457-.98438.55176s-.87793.17578-1.43164.17578H.01605V1.00115h2.76758c1.02441,0,1.75977.22949,2.20801.6875.44824.45898.67188,1.19531.67188,2.20801,0,.3418-.02148.64551-.06348.91211-.04297.2666-.12598.50977-.24805.72754-.12305.21875-.28809.4082-.49609.56836s-.47754.30371-.80859.43164c.38477.10742.69629.24609.93652.41602.24023.1709.42676.37598.55957.61621.13379.24023.22461.51465.27246.82422s.07227.65039.07227,1.02441Zm-1.2168-5.53613c0-.77832-.17578-1.31445-.52734-1.6084-.35254-.29297-.89648-.43945-1.63184-.43945H.97601v4.33594h1.69531c.74707,0,1.2666-.20605,1.56055-.61621.29297-.41016.43945-.96777.43945-1.67188Zm.20801,5.55176c0-.76758-.15723-1.36816-.47168-1.7998-.31445-.43262-.87793-.64844-1.6875-.64844H.97601v4.75195h1.40723c.4375,0,.81348-.03125,1.12891-.0957.31445-.06445.57324-.18164.77539-.35156.20312-.1709.35254-.40527.44824-.7041s.14355-.68262.14355-1.15234Z"/>
  <path class="b" d="m8.41547,8.68084v.46387c0,.44824.02148.84766.06445,1.2002.04199.35156.125.65039.24707.89551.12305.24609.29688.43262.52051.56055s.51758.19141.87988.19141c.3418,0,.62109-.0498.83984-.15137s.38965-.2373.5127-.4082c.12207-.1709.20801-.37012.25586-.59961s.07715-.47266.08789-.72852h.91211c-.02148.37402-.0752.71777-.16016,1.03223-.08594.31445-.22949.5918-.43262.83203-.20215.24023-.46582.42676-.79199.55957-.3252.13281-.7334.2002-1.22363.2002-.57617,0-1.03711-.09863-1.38379-.2959s-.61328-.4668-.7998-.80762c-.1875-.3418-.3125-.73926-.37598-1.19238-.06445-.45312-.09668-.93555-.09668-1.44824,0-.5332.0166-1.07715.04883-1.63184.03125-.55469.13281-1.05566.30371-1.50391.16992-.44824.44238-.81348.81543-1.0957.37402-.2832.90137-.4248,1.58398-.4248.5127,0,.93359.08301,1.26465.24805.33008.16602.5918.39746.78418.69629.19141.29883.3252.64844.39941,1.04785.07422.40039.1123.83496.1123,1.30469v1.05566h-4.36816Zm3.42383-.73633v-.45605c0-.19727-.00488-.37598-.01562-.53613-.02148-.24512-.06152-.47949-.12012-.70312-.05859-.22461-.14941-.4248-.27246-.60059-.12207-.17578-.2793-.31738-.47168-.42383s-.43164-.16016-.71973-.16016c-.59766,0-1.02734.17578-1.28809.52832-.26172.35156-.41895.78418-.47168,1.2959-.03223.35156-.04883.7041-.04883,1.05566h3.4082Z"/>
  <path class="b" d="m14.7514,12.56853V1.00115h.91211v11.56738h-.91211Z"/>
  <path class="b" d="m22.68695,8.58513c0,.66113-.03418,1.25-.10352,1.76758s-.20605.95215-.4082,1.30371c-.20312.35254-.48047.61914-.83203.80078-.35156.18066-.80566.27148-1.36035.27148-.58691,0-1.05273-.0957-1.39941-.28809-.34668-.19141-.61133-.46875-.79199-.83203-.18164-.3623-.29883-.79395-.35254-1.2959-.05371-.50098-.08008-1.06641-.08008-1.69629,0-.58594.02637-1.14062.08008-1.66406.05371-.52246.17578-.97852.36816-1.36719.19238-.38965.46973-.69629.83203-.91992.3623-.22461.84766-.33691,1.45605-.33691s1.08496.10742,1.43164.32031c.34668.21387.60547.50684.77637.87988.1709.37402.27734.82227.32031,1.34473.04199.52246.06348,1.09277.06348,1.71191Zm-.94336-.27246c0-.33008-.00586-.68555-.0166-1.06348-.01074-.37891-.06348-.73047-.16016-1.05664-.0957-.3252-.25879-.59473-.4873-.80762-.22949-.21387-.56348-.32031-1-.32031-.45898,0-.81152.1123-1.05664.33594-.24512.22461-.4209.49902-.52734.82422-.10742.3252-.16602.67969-.17676,1.06445-.01074.38379-.01562.73535-.01562,1.05566v.92773c0,.30957.01074.62402.03223.94434.02148.31934.08789.61328.2002.87988.11133.2666.28223.48242.51172.64746.22949.16602.55176.24805.96777.24805.39453,0,.70703-.0791.93652-.23926.22852-.16016.40234-.36816.51953-.62402s.19238-.54395.22363-.86426c.03223-.32031.04883-.63965.04883-.95996v-.99219Z"/>
  <path class="b" d="m31.47113,12.56853h-1.15234l-1.71191-6.86328-1.59961,6.86328h-1.15234l-2.1123-8.06348h.95996l1.76074,7.16797,1.63184-7.16797h1.12012l1.74414,7.16797,1.69531-7.16797h.91211l-2.0957,8.06348Z"/>
  <path class="b" d="m43.11859,12.56853l-.87988-3.05566h-4.28809l-.89551,3.05566h-.95996l3.47168-11.56738h1.12012l3.44043,11.56738h-1.00879Zm-3.02344-10.51172l-1.87207,6.62402h3.74414l-1.87207-6.62402Z"/>
  <path class="b" d="m47.55121,12.56853h-1.04004l-2.28809-8.06348h.99121l1.84082,7.04004,1.8877-7.04004h.87988l-2.27148,8.06348Z"/>
  <path class="b" d="m51.79144,8.68084v.46387c0,.44824.02148.84766.06445,1.2002.04199.35156.125.65039.24707.89551.12305.24609.29688.43262.52051.56055s.51758.19141.87988.19141c.3418,0,.62109-.0498.83984-.15137s.38965-.2373.5127-.4082c.12207-.1709.20801-.37012.25586-.59961s.07715-.47266.08789-.72852h.91211c-.02148.37402-.0752.71777-.16016,1.03223-.08594.31445-.22949.5918-.43262.83203-.20215.24023-.46582.42676-.79199.55957-.3252.13281-.7334.2002-1.22363.2002-.57617,0-1.03711-.09863-1.38379-.2959s-.61328-.4668-.7998-.80762c-.1875-.3418-.3125-.73926-.37598-1.19238-.06445-.45312-.09668-.93555-.09668-1.44824,0-.5332.0166-1.07715.04883-1.63184.03125-.55469.13281-1.05566.30371-1.50391.16992-.44824.44238-.81348.81543-1.0957.37402-.2832.90137-.4248,1.58398-.4248.5127,0,.93359.08301,1.26465.24805.33008.16602.5918.39746.78418.69629.19141.29883.3252.64844.39941,1.04785.07422.40039.1123.83496.1123,1.30469v1.05566h-4.36816Zm3.42383-.73633v-.45605c0-.19727-.00488-.37598-.01562-.53613-.02148-.24512-.06152-.47949-.12012-.70312-.05859-.22461-.14941-.4248-.27246-.60059-.12207-.17578-.2793-.31738-.47168-.42383s-.43164-.16016-.71973-.16016c-.59766,0-1.02734.17578-1.28809.52832-.26172.35156-.41895.78418-.47168,1.2959-.03223.35156-.04883.7041-.04883,1.05566h3.4082Z"/>
  <path class="b" d="m60.92719,5.24041c-.62891,0-1.10156.2002-1.41602.60059-.31445.39941-.47168.89355-.47168,1.47949v5.24805h-.91211v-6.5918c0-.24512-.00586-.49023-.01562-.73633-.01074-.24512-.02734-.49023-.04883-.73535h.88086l.01562,1.07129c.21289-.38379.49609-.6875.84766-.91113.35254-.22461.74121-.33691,1.16797-.33691h.08789c.03809,0,.07227.00586.10449.0166v.91211c-.05371-.01074-.13379-.0166-.24023-.0166Z"/>
  <path class="b" d="m66.28754,12.56853v-1.12012c-.14941.21387-.30176.40039-.45605.56055s-.31934.29102-.49609.3916c-.17578.10156-.36719.17578-.5752.22363s-.44629.07227-.71289.07227c-.71387,0-1.24805-.22363-1.59961-.67188s-.52832-1.00781-.52832-1.67969c0-.62891.13086-1.12305.39258-1.48047.26074-.35645.59668-.62402,1.00781-.7998.41016-.17578.86914-.28809,1.37598-.33594s1.01074-.07227,1.51172-.07227v-.30371c0-.28809-.00781-.56836-.02344-.83984-.0166-.27246-.06934-.51465-.16016-.72852-.09082-.21289-.23535-.38379-.43262-.51172s-.47656-.19141-.83984-.19141c-.19141,0-.38086.02344-.56738.07129-.1875.04785-.35254.12598-.49609.23242-.14453.10645-.26172.24219-.35254.4082-.09082.16504-.13574.35938-.13574.58398v.06348h-.92773v-.04785c0-.3623.06641-.67188.2002-.92773.13281-.25586.31445-.46973.54395-.64062.22852-.16992.49609-.2959.7998-.37598s.62598-.12012.96777-.12012c.46973,0,.85352.05957,1.15234.17676.29785.11719.53613.28809.71191.51172s.29785.50195.36816.83203c.06934.33105.10352.71484.10352,1.15234v3.04004c0,.84277.0166,1.68555.04785,2.52734h-.87988Zm-.08008-4.17578h-.30371c-.3418,0-.69043.01562-1.04785.04785s-.67969.1123-.96777.24023-.52637.31445-.71191.55957c-.1875.24609-.28027.58203-.28027,1.00879,0,.22363.02344.4375.07227.63965.04785.20312.125.38184.23145.53613s.24805.28027.42383.37598.38672.14355.63184.14355c.38477,0,.70215-.07715.95215-.23145.25098-.15527.45117-.35449.60059-.60059.14941-.24512.25293-.51953.31152-.82324.05859-.30469.08789-.61133.08789-.9209v-.97559Z"/>
  <path class="b" d="m74.14398,4.50506c-.01074.24512-.02148.47461-.03223.6875-.01074.21387-.0166.44336-.0166.68848v7.03906c0,.92871-.20215,1.63477-.60742,2.12012s-1.10449.72852-2.0957.72852c-1.55762,0-2.35254-.76855-2.38477-2.30371h.94434c0,.51172.10645.90332.32031,1.17578.21289.27148.5918.4082,1.13574.4082.40527,0,.72559-.06738.95996-.2002.23438-.13379.41016-.31543.52832-.54395.11719-.22949.19141-.49609.22363-.80078.03223-.30371.04785-.62598.04785-.96777v-1.02344c-.24512.35156-.51465.60254-.80762.75195-.29395.14941-.65332.22363-1.08008.22363-.57617,0-1.0293-.11719-1.36035-.35156-.33008-.23438-.57812-.54102-.74414-.91992-.16504-.37891-.26953-.7998-.31152-1.26465-.04297-.46387-.06445-.9248-.06445-1.38379,0-.50098.0293-1.00488.08789-1.51172s.17871-.96289.36035-1.36816.4375-.7334.76855-.9834c.33008-.25098.76758-.37695,1.31152-.37695.52246,0,.91992.09082,1.19238.27246.27148.18164.51367.46973.72754.86426l.01562-.95996h.88086Zm-.92871,3.59961c0-.33008-.0127-.67188-.04004-1.02344-.02637-.35254-.09863-.6748-.21582-.96875-.11719-.29297-.29297-.53613-.52734-.72754-.23535-.19238-.56055-.28809-.97656-.28809-.4375,0-.77344.12305-1.00781.36816s-.40527.54688-.51172.90332c-.10742.3584-.16797.73633-.18457,1.13672-.01562.39941-.02344.75488-.02344,1.06348,0,.3418.00781.70215.02344,1.08008.0166.37891.07422.72266.17578,1.03223s.26172.56543.48047.76758c.21875.20312.53027.30469.93555.30469.49121,0,.86426-.12598,1.12012-.37598.25586-.25098.44043-.56055.55273-.92871.11133-.36719.17285-.76172.18359-1.18359.01074-.4209.01562-.80762.01562-1.16016Z"/>
  <path class="b" d="m76.71918,8.68084v.46387c0,.44824.02148.84766.06445,1.2002.04199.35156.125.65039.24707.89551.12305.24609.29688.43262.52051.56055s.51758.19141.87988.19141c.3418,0,.62109-.0498.83984-.15137s.38965-.2373.5127-.4082c.12207-.1709.20801-.37012.25586-.59961s.07715-.47266.08789-.72852h.91211c-.02148.37402-.0752.71777-.16016,1.03223-.08594.31445-.22949.5918-.43262.83203-.20215.24023-.46582.42676-.79199.55957-.3252.13281-.7334.2002-1.22363.2002-.57617,0-1.03711-.09863-1.38379-.2959s-.61328-.4668-.7998-.80762c-.1875-.3418-.3125-.73926-.37598-1.19238-.06445-.45312-.09668-.93555-.09668-1.44824,0-.5332.0166-1.07715.04883-1.63184.03125-.55469.13281-1.05566.30371-1.50391.16992-.44824.44238-.81348.81543-1.0957.37402-.2832.90137-.4248,1.58398-.4248.5127,0,.93359.08301,1.26465.24805.33008.16602.5918.39746.78418.69629.19141.29883.3252.64844.39941,1.04785.07422.40039.1123.83496.1123,1.30469v1.05566h-4.36816Zm3.42383-.73633v-.45605c0-.19727-.00488-.37598-.01562-.53613-.02148-.24512-.06152-.47949-.12012-.70312-.05859-.22461-.14941-.4248-.27246-.60059-.12207-.17578-.2793-.31738-.47168-.42383s-.43164-.16016-.71973-.16016c-.59766,0-1.02734.17578-1.28809.52832-.26172.35156-.41895.78418-.47168,1.2959-.03223.35156-.04883.7041-.04883,1.05566h3.4082Z"/>
</svg>