<svg id="Bronze" xmlns="http://www.w3.org/2000/svg" viewBox="0 0 142.989 50"><path d="M0,.278H36.714V.572H0ZM18.189,1.832H0V1.538H18.231Zm-.336,1.26H0V2.8H17.937Zm-.294,1.261H0V4.058H17.643Zm-.294,1.26H0v-.3H17.307Zm-.294,1.26H0V6.579H17.013Zm-.294,1.26H0V7.839H16.719Zm-.336,1.218H0V9.1H16.425Zm-.294,1.26H0v-.252H16.131ZM1.386,11.872H0V11.62H1.092Zm1.344,1.26H0V12.88H2.437Zm1.345,1.26H0V14.14H3.781Zm1.3,1.26H0V15.4H5.125Zm1.344,1.261H0v-.252H6.427Zm1.344,1.26H0v-.252H7.771Zm1.345,1.26H0v-.252H9.116Zm1.3,1.26H0v-.252H10.46Zm.294,1.261H0V21.7H11.3Zm-1.344,1.26H0v-.252H9.956Zm-1.3,1.26H.042v-.252H8.611Zm-1.344,1.26H.126v-.252H7.267ZM5.671,27H.294c0-.085-.042-.169-.042-.253H5.965ZM4.327,28.254H.546L.462,28H4.621Zm-1.3,1.261H.84l-.084-.252h2.52ZM1.68,30.775H1.218a.6.6,0,0,0-.084-.252h.8Zm14.073-18.9H2.311l-.883-.252H15.837Zm.252,20.163H1.722L1.6,31.783H15.963ZM16.3,33.3H2.311l-.126-.252H16.257Zm.294,1.261H3.024L2.9,34.3H16.551ZM4.075,30.523H15.669l.042.252H3.192Zm12.854,5.293H3.907l-.21-.252H16.845Zm.294,1.26H4.873l-.21-.252H17.139ZM15.458,13.132H6.6l-.882-.252H15.5Zm2.059,25.2H6.007l-.252-.252H17.433Zm.294,1.261H7.351l-.294-.252h10.67ZM8.233,29.263h7.142l.042.252H7.393Zm9.872,11.594h-9.2a1.136,1.136,0,0,1-.337-.294h9.452ZM10.838,14.392l-.882-.252h5.251l-.042.252ZM10.25,41.823H26.465a1.514,1.514,0,0,1-.421.294H10.67A1.508,1.508,0,0,1,10.25,41.823Zm4.873-13.569H11.552L12.434,28h2.605Zm-2.9,14.829H24.49a2.55,2.55,0,0,1-.42.294H12.644A2.55,2.55,0,0,1,12.224,43.083ZM14.871,15.61,14.2,15.4h.714Zm-.42,28.733h7.813l-.462.295H14.913ZM16.887,45.6h2.941c-.21.084-.379.21-.547.294H17.433C17.265,45.814,17.1,45.688,16.887,45.6ZM18.273,1.538H36.714v.294h-18.4Zm.168,39.025h9.7a1.132,1.132,0,0,1-.336.294H18.4ZM18.567,2.8H36.714v.294h-18.1Zm.168,36.547H29.657l-.294.252H18.693Zm.126-35.287H36.714v.295H18.9Zm.168,34.026h11.93l-.251.252H18.987Zm.126-32.766H36.714v.3H19.239Zm.168,31.506H32.052l-.21.252H19.281Zm.126-30.245H36.714v.294H19.534Zm.169,28.985h13.4l-.21.252H19.576Zm.126-27.725h16.97v.294H19.828ZM19.912,34.3h13.9l-.126.252H19.87ZM20.08,9.1H36.714v.252H20.122Zm.126,23.944H34.53L34.4,33.3H20.164Zm.168-22.684h16.34v.252h-16.3ZM20.5,31.783H35.118l-.126.252H20.458ZM34.152,11.872H20.709l-.042-.252H35.034ZM20.793,30.523H32.43l.882.252H20.751Zm9.116-17.391H21l-.042-.252h9.83Zm-1.68,16.131.882.252H21.046l.042-.252ZM25.667,14.392H21.3l-.042-.252h5.293ZM24.07,28l.841.252H21.34L21.424,28ZM22.264,15.4l-.672.21-.042-.21Zm2.941,6.3H36.714v.252H25.5Zm.839-1.261h10.67v.252H25.75Zm.5,2.521H36.714v.252H26.8Zm.84-3.781h9.325v.252H27.1Zm.5,5.041h8.779v.252H28.145Zm.84-6.3h7.981v.252H28.439Zm.462,7.561h7.393v.252h-7.1Zm.84-8.821h6.679v.252H29.783Zm.5,10.081h5.922c0,.084-.042.168-.042.253H30.833ZM31.379,15.4h5.335v.252H31.085Zm.5,12.6h4.368l-.084.252H32.136Zm.84-13.862h3.99v.252H32.43Zm.5,15.123h2.73l-.083.252h-2.4Zm.84-16.383h2.646v.252h-2.94Zm.462,17.643h1.05a.6.6,0,0,0-.084.252h-.672Zm.84-18.9h1.344v.252h-1.6ZM64.062,27.289v4.83c0,4.2-2.143,7.6-7.6,7.6H48.141V4.227H56.29c5.167,0,7.561,3.4,7.561,7.6v4.957a4.93,4.93,0,0,1-4.663,4.7C62.633,21.828,64.062,25.23,64.062,27.289ZM52.8,19.685H56.29a2.887,2.887,0,0,0,2.94-2.9V11.032a2.949,2.949,0,0,0-2.94-2.941H52.8Zm6.6,6.6a2.913,2.913,0,0,0-2.94-2.9H52.8V36.026h3.655a2.949,2.949,0,0,0,2.94-2.941ZM76.831,14.308h.42v5.041h-.42c-1.428,0-3.822-.042-3.822,3.949V39.723H68.346V14.98h4.369l.294,2.605H73.3A3.685,3.685,0,0,1,76.831,14.308Zm16.3,6.805V33.589a6.826,6.826,0,0,1-13.652,0V21.113a6.826,6.826,0,0,1,13.652,0Zm-4.662-1.134a2.164,2.164,0,1,0-4.327,0V34.724a2.164,2.164,0,1,0,4.327,0Zm22.557-.882V39.723h-4.663V19.979a2.163,2.163,0,1,0-4.326,0V39.723H97.373V14.98h4.369l.294,1.891h.294a4.416,4.416,0,0,1,3.906-2.563A4.787,4.787,0,0,1,111.025,19.1ZM126.4,14.98l-6.343,20.878h5.881v3.865H114.344l6.343-20.878h-5.8V14.98ZM134,29.011v5.713a2.163,2.163,0,1,0,4.326,0V31.657h4.663v1.932a6.826,6.826,0,0,1-13.652,0V21.113a6.826,6.826,0,0,1,13.652,0v7.9Zm0-3.487h4.326V19.979a2.163,2.163,0,1,0-4.326,0Z"/></svg>