<svg id="Gold" xmlns="http://www.w3.org/2000/svg" viewBox="-0.002 0 108.884 50"><path d="M0,.278H36.63v23.23a22.712,22.712,0,0,1-1.512,8.275L25.079,22.29l10.544-9.956-13.9,4.117L18.357,2.378,15,16.451l-13.9-4.117L11.678,22.29,1.554,31.867A21.5,21.5,0,0,1,0,23.508ZM21.676,28.086l13.316,3.991c-3.066,7.31-10.039,11.342-16.677,14.451-6.679-3.109-13.61-7.1-16.677-14.409L15,28.086l3.36,14.157Zm41.5-16.592v5.377h-4.62V10.737a3.3,3.3,0,0,0-6.6,0V33.253a3.3,3.3,0,1,0,6.6,0V25.272h-3.32v-4.2h7.94V32.5a7.94,7.94,0,0,1-15.879,0v-21a7.94,7.94,0,1,1,15.879,0Zm18.147,9.661V33.631a6.826,6.826,0,0,1-13.652,0V21.155a6.826,6.826,0,1,1,13.652,0Zm-4.663-1.176a2.163,2.163,0,0,0-4.326,0V34.766a2.163,2.163,0,1,0,4.326,0Zm9.074-15.71H90.4V39.723H85.737Zm23.146,0V39.723h-4.368l-.294-1.89h-.3a4.383,4.383,0,0,1-3.906,2.6,4.788,4.788,0,0,1-4.79-4.789V19.1a4.788,4.788,0,0,1,4.79-4.789,4.382,4.382,0,0,1,3.906,2.605h.3V4.269Zm-4.662,15.71a2.164,2.164,0,1,0-4.327,0V34.766a2.164,2.164,0,1,0,4.327,0Z"/></svg>