<?xml version="1.0" encoding="UTF-8"?>
<svg id="a" data-name="Pillars" xmlns="http://www.w3.org/2000/svg" width="90" height="16" viewBox="0 0 90 16">
  <defs>
    <style>
      .b {
        fill: #231f20;
      }
    </style>
  </defs>
  <path class="b" d="m5.31177,12.56934v-5.52051H.97632v5.52051H.01636V1.00098h.95996v5.2002h4.33545V1.00098h.95996v11.56836h-.95996Z"/>
  <path class="b" d="m8.38403,2.39356v-1.2168h1.10352v1.2168h-1.10352Zm.0957,10.17578V4.50489h.91211v8.06445h-.91211Z"/>
  <path class="b" d="m16.75122,4.50489c-.01074.24609-.02148.47461-.03223.68848-.01074.21289-.0166.44238-.0166.6875v7.04004c0,.92871-.20215,1.63477-.60742,2.12012s-1.10449.72852-2.0957.72852c-1.55762,0-2.35254-.76855-2.38477-2.30371h.94434c0,.51172.10645.90332.32031,1.17578.21289.27148.5918.4082,1.13574.4082.40527,0,.72559-.06738.95996-.2002.23438-.13379.41016-.31543.52832-.54395.11719-.22949.19141-.49609.22363-.80078.03223-.30371.04785-.62598.04785-.96777v-1.02441c-.24512.35254-.51465.60352-.80762.75195-.29395.15039-.65332.22461-1.08008.22461-.57617,0-1.0293-.11719-1.36035-.35254-.33008-.23438-.57812-.54102-.74414-.91992-.16504-.37793-.26953-.7998-.31152-1.26367-.04297-.46387-.06445-.9248-.06445-1.38379,0-.50195.0293-1.00586.08789-1.5127.05859-.50586.17871-.96191.36035-1.36719s.4375-.7334.76855-.98438c.33008-.25.76758-.37598,1.31152-.37598.52246,0,.91992.09082,1.19238.27246.27148.18066.51367.46875.72754.86328l.01562-.95996h.88086Zm-.92871,3.60059c0-.33105-.0127-.67285-.04004-1.02441-.02637-.35156-.09863-.6748-.21582-.96777s-.29297-.53613-.52734-.72852c-.23535-.19141-.56055-.28809-.97656-.28809-.4375,0-.77344.12305-1.00781.36816-.23438.24609-.40527.54688-.51172.9043-.10742.35742-.16797.73633-.18457,1.13574-.01562.40039-.02344.75488-.02344,1.06445,0,.34082.00781.70117.02344,1.08008.0166.37891.07422.72266.17578,1.03125.10156.30957.26172.56641.48047.76855s.53027.30371.93555.30371c.49121,0,.86426-.125,1.12012-.37598.25586-.25.44043-.55957.55273-.92773.11133-.36816.17285-.7627.18359-1.18457.01074-.4209.01562-.80762.01562-1.15918Z"/>
  <path class="b" d="m22.91138,12.56934v-5.04004c0-.2666-.00586-.54102-.01562-.82422-.01074-.28223-.06152-.54102-.15234-.77637-.09082-.23438-.23242-.42578-.42383-.5752-.19238-.14941-.46973-.22461-.83203-.22461-.35254,0-.64551.07227-.87988.21582-.23535.14453-.42676.33887-.57617.58398-.14941.24609-.25586.52832-.32031.84863-.06348.31934-.0957.65527-.0957,1.00781v4.78418h-.91211V1.00098h.91211v4.49609c.24512-.3623.53027-.64844.85547-.85645.32617-.20801.72266-.31152,1.19238-.31152.41602,0,.75977.06445,1.03223.19238.27148.12793.49316.30664.66406.53516.16992.22949.29004.50195.35938.81641s.10449.65332.10449,1.01562v5.68066h-.91211Z"/>
  <path class="b" d="m28.24048.93262c1.53711,0,2.81738,1.24805,2.81738,2.78516,0,.73633-.25586,1.37598-.68848,1.84082l.7207.78418-.46484.43164-.75195-.75195c-.48047.30371-1.02441.51172-1.63281.51172-1.52051,0-2.80078-1.24805-2.80078-2.81641,0-1.53711,1.2959-2.78516,2.80078-2.78516Zm1.15234,4.59375l-1.24805-1.24902.47949-.46387,1.26465,1.29688c.32031-.38477.5127-.84863.5127-1.39258,0-1.16895-.91211-2.16113-2.16113-2.16113-1.24805,0-2.14453.99219-2.14453,2.16113,0,1.21582.99219,2.16016,2.14453,2.16016.44824,0,.83203-.12793,1.15234-.35156Z"/>
</svg>