<?xml version="1.0" encoding="UTF-8"?>
<svg id="a" data-name="Pillars" xmlns="http://www.w3.org/2000/svg" width="90" height="16" viewBox="0 0 90 16">
  <defs>
    <style>
      .b {
        fill: #231f20;
      }
    </style>
  </defs>
  <path class="b" d="m.02582,12.56814V1.00076h.95996v10.71973h3.64746v.84766H.02582Z"/>
  <path class="b" d="m11.16156,8.58475c0,.66113-.03418,1.25-.10352,1.76758s-.20605.95215-.4082,1.30371c-.20312.35254-.48047.61914-.83203.80078-.35156.18066-.80566.27148-1.36035.27148-.58691,0-1.05273-.0957-1.39941-.28809-.34668-.19141-.61133-.46875-.79199-.83203-.18164-.3623-.29883-.79395-.35254-1.2959-.05371-.50098-.08008-1.06641-.08008-1.69629,0-.58594.02637-1.14062.08008-1.66406.05371-.52246.17578-.97852.36816-1.36719.19238-.38965.46973-.69629.83203-.91992.3623-.22461.84766-.33691,1.45605-.33691s1.08496.10742,1.43164.32031c.34668.21387.60547.50684.77637.87988.1709.37402.27734.82227.32031,1.34473.04199.52246.06348,1.09277.06348,1.71191Zm-.94336-.27246c0-.33008-.00586-.68555-.0166-1.06348-.01074-.37891-.06348-.73047-.16016-1.05664-.0957-.3252-.25879-.59473-.4873-.80762-.22949-.21387-.56348-.32031-1-.32031-.45898,0-.81152.1123-1.05664.33594-.24512.22461-.4209.49902-.52734.82422-.10742.3252-.16602.67969-.17676,1.06445-.01074.38379-.01562.73535-.01562,1.05566v.92773c0,.30957.01074.62402.03223.94434.02148.31934.08789.61328.2002.87988.11133.2666.28223.48242.51172.64746.22949.16602.55176.24805.96777.24805.39453,0,.70703-.0791.93652-.23926.22852-.16016.40234-.36816.51953-.62402s.19238-.54395.22363-.86426c.03223-.32031.04883-.63965.04883-.95996v-.99219Z"/>
  <path class="b" d="m19.94574,12.56814h-1.15234l-1.71191-6.86328-1.59961,6.86328h-1.15234l-2.1123-8.06348h.95996l1.76074,7.16797,1.63184-7.16797h1.12012l1.74414,7.16797,1.69531-7.16797h.91211l-2.0957,8.06348Z"/>
</svg>