<svg id="Negative" xmlns="http://www.w3.org/2000/svg" viewBox="0 0 127.072 50"><path d="M16.845,4.227v35.5H9.7L4.915,10.78H4.663V39.723H0V4.227H7.015L11.93,33.674h.252V4.227Zm4.5,29.363V21.114a6.826,6.826,0,0,1,13.652,0v7.9H26v5.713a2.164,2.164,0,1,0,4.328,0V31.7h4.662v1.89a6.826,6.826,0,0,1-13.652,0ZM26,25.524H30.33V19.98a2.164,2.164,0,1,0-4.328,0ZM52.8,14.98V42.243a6.826,6.826,0,0,1-13.652,0V41.235h4.663v2.143a2.164,2.164,0,1,0,4.327,0V36.4h-.294a4.385,4.385,0,0,1-3.907,2.6,4.787,4.787,0,0,1-4.789-4.789V19.1a4.786,4.786,0,0,1,4.789-4.789,4.417,4.417,0,0,1,3.907,2.562h.294l.294-1.891Zm-4.662,5a2.164,2.164,0,1,0-4.327,0V33.338a2.164,2.164,0,1,0,4.327,0Zm22.851-5V39.723H66.624l-.3-1.89h-.294A4.415,4.415,0,0,1,62.129,40.4a4.787,4.787,0,0,1-4.789-4.79V19.1a4.786,4.786,0,0,1,4.789-4.789,4.413,4.413,0,0,1,3.906,2.562h.294l.3-1.891Zm-4.663,5a2.163,2.163,0,1,0-4.326,0V34.725a2.163,2.163,0,1,0,4.326,0Zm18.358-1.134H81.494V39.723H76.873V18.846H74.4V14.98h2.478V4.227h4.621V14.98h3.193Zm2.94-3.866H92.29V39.723H87.627ZM100.4,39.723l-5.167-24.7h4.957L103.128,35.4h.294l3.024-20.375h4.915l-5.209,24.7ZM113.42,33.59V21.114a6.826,6.826,0,0,1,13.652,0v7.9h-8.989v5.713a2.163,2.163,0,1,0,4.326,0V31.7h4.663v1.89a6.826,6.826,0,0,1-13.652,0Zm4.663-8.066h4.326V19.98a2.163,2.163,0,1,0-4.326,0Z"/><circle cx="89.958" cy="6.411" r="2.856"/></svg>