<svg id="Neutral" xmlns="http://www.w3.org/2000/svg" viewBox="0 0 103.506 50"><path d="M16.845,4.269V39.723H9.7L4.873,10.78h-.21V39.723H0V4.269H6.973L11.93,33.716h.252V4.269ZM21.13,33.632V21.156a6.826,6.826,0,1,1,13.652,0v7.9h-8.99v5.713a2.17,2.17,0,0,0,2.185,2.183,2.2,2.2,0,0,0,2.184-2.183V31.7h4.621v1.932a6.826,6.826,0,0,1-13.652,0Zm4.662-8.066h4.369V19.98a2.188,2.188,0,0,0-2.184-2.143,2.162,2.162,0,0,0-2.185,2.143ZM52.383,15.022v18.61a6.826,6.826,0,0,1-13.652,0V15.022h4.663V34.767a2.163,2.163,0,1,0,4.326,0V15.022Zm13.694,3.866h-3.15V39.723H58.264V18.888H55.785V15.022h2.479V4.269h4.663V15.022h3.15Zm7.6,20.835H69.018v-24.7h4.369l.294,2.6h.294c.546-2.437,2.268-3.318,3.529-3.318h.462v5.083H77.5c-1.429,0-3.823-.042-3.823,3.948Zm20.248-24.7v24.7H89.56l-.294-1.89h-.294a4.434,4.434,0,0,1-3.908,2.605,4.787,4.787,0,0,1-4.788-4.79V19.1a4.786,4.786,0,0,1,4.788-4.789,4.506,4.506,0,0,1,3.908,2.6h.294l.294-1.891ZM89.266,19.98a2.164,2.164,0,0,0-4.328,0V34.767a2.164,2.164,0,1,0,4.328,0ZM98.844,4.269h4.662V39.723H98.844Z"/></svg>