<svg id="Not_Ratable" data-name="Not Ratable" xmlns="http://www.w3.org/2000/svg" viewBox="0 0 167.231 50"><path d="M16.845,4.269V39.723H9.7L4.873,10.779h-.21V39.723H0V4.269H6.973L11.93,33.716h.252V4.269Zm17.937,29.32a6.826,6.826,0,1,1-13.652,0V21.155a6.826,6.826,0,1,1,13.652,0Zm-4.621-13.61A2.224,2.224,0,0,0,27.977,17.8a2.2,2.2,0,0,0-2.185,2.184V34.766a2.161,2.161,0,0,0,2.185,2.142,2.187,2.187,0,0,0,2.184-2.142ZM47.72,18.887H44.527V39.723H39.865V18.887H37.387V15.022h2.478V4.269h4.662V15.022H47.72ZM59.734,39.723V4.269h7.772c5.125,0,7.561,3.4,7.561,7.561v5.251A4.971,4.971,0,0,1,70.4,21.828c3.445.294,4.873,3.738,4.873,5.755v12.14H70.614V26.574a2.939,2.939,0,0,0-2.94-2.9H64.4V39.723Zm4.663-19.7h3.109a2.913,2.913,0,0,0,2.9-2.94V11.032a2.9,2.9,0,0,0-2.9-2.9H64.4Zm28.481-5v24.7H88.51l-.294-1.89h-.295a4.456,4.456,0,0,1-3.906,2.6,4.787,4.787,0,0,1-4.789-4.789V19.1a4.787,4.787,0,0,1,4.789-4.789,4.382,4.382,0,0,1,3.906,2.605h.295l.294-1.891Zm-4.662,4.957a2.164,2.164,0,1,0-4.327,0V34.766a2.164,2.164,0,0,0,4.327,0Zm18.356-1.092h-3.15V39.723H98.759V18.887H96.281V15.022h2.478V4.269h4.663V15.022h3.15Zm16.089-3.865v24.7h-4.368L118,37.833h-.294a4.458,4.458,0,0,1-3.907,2.6,4.787,4.787,0,0,1-4.789-4.789V19.1a4.787,4.787,0,0,1,4.789-4.789,4.385,4.385,0,0,1,3.907,2.605H118l.294-1.891ZM118,19.979a2.164,2.164,0,1,0-4.327,0V34.766a2.164,2.164,0,0,0,4.327,0Zm13.694-15.71V16.913h.294a4.384,4.384,0,0,1,3.907-2.605,4.788,4.788,0,0,1,4.789,4.789V35.648a4.788,4.788,0,0,1-4.789,4.789,4.457,4.457,0,0,1-3.907-2.6h-.294l-.294,1.89H127.03V4.269Zm0,30.5a2.164,2.164,0,0,0,4.327,0V19.979a2.164,2.164,0,1,0-4.327,0ZM144.8,4.269h4.662V39.723H144.8Zm8.779,29.32V21.155a6.826,6.826,0,1,1,13.652,0v7.856h-8.989v5.755a2.163,2.163,0,0,0,4.326,0V31.7h4.663v1.89a6.826,6.826,0,1,1-13.652,0Zm4.663-8.065h4.326V19.979a2.163,2.163,0,1,0-4.326,0Z"/></svg>