<svg id="Silver" xmlns="http://www.w3.org/2000/svg" viewBox="0 0 128.752 50"><path d="M0,.278H36.588V2.294H18.273l-.084-.5-.126.5H0ZM16.845,7.293H0V4.605H17.517Zm-15.333,5H0V9.6H16.3l-.63,2.688H2.73L.924,11.746Zm5.293,5H0V14.6H3.949Zm4.075,5H0V19.6H9.242l2.226,2.1Zm-5.293,5H.294A26.368,26.368,0,0,1,0,24.6H8.443ZM3.15,29.6l-1.806,1.68c-.21-.546-.42-1.092-.588-1.68Zm12.813,2.688H1.722a5.609,5.609,0,0,1-.294-.756L7.855,29.6h7.478Zm1.176,5H4.873A21.184,21.184,0,0,1,2.9,34.6H16.509ZM18.651,39.6H29.489a32.407,32.407,0,0,1-3.529,2.688H10.586A36.6,36.6,0,0,1,7.1,39.6H17.685l.5,2.016ZM14.787,15.862,10.46,14.6h4.663ZM14.451,44.6h7.687c-1.3.672-2.562,1.3-3.865,1.89C17.013,45.9,15.711,45.268,14.451,44.6ZM18.819,4.605H36.588V7.293h-17.1ZM19.828,34.6h13.82a17.437,17.437,0,0,1-1.932,2.688H19.2ZM20.038,9.6h16.55v2.688H34.866l.546-.546-1.806.546H20.667Zm8.443,20,6.637,1.974a3.633,3.633,0,0,1-.294.714H20.374L21,29.6Zm-2.605-15-4.368,1.26-.294-1.26Zm1.261,5h9.451V22.29H25.457l-.588-.588Zm.756,5h8.653a26.614,26.614,0,0,1-.252,2.689h-5.5Zm4.537-10h4.158v2.689H29.531Zm.756,15h2.6a13.675,13.675,0,0,1-.631,1.848ZM57.34,20.483c2.9,3.235,5.881,6.512,5.881,10.292v1.891a7.751,7.751,0,1,1-15.5,0v-5.5h4.663v6.006a3.088,3.088,0,0,0,6.176,0V30.775c0-1.974-2.479-4.747-4.663-7.141-2.983-3.319-6.049-6.763-6.049-10.712V10.485c0-3.906,3.654-6.931,7.56-6.931a7.593,7.593,0,0,1,7.6,7.562v4.536H58.348v-5a2.941,2.941,0,0,0-5.881,0v2.269C52.467,15.106,54.945,17.837,57.34,20.483Zm9.578-5.5H71.58V39.723H66.918ZM76.2,4.227h4.663v35.5H76.2Zm18.82,10.8h4.957l-5.209,24.7H89.014l-5.167-24.7H88.8L91.744,35.4h.294Zm20.667,6.091v7.9H106.7v5.755a2.164,2.164,0,0,0,4.327,0V31.7h4.663v1.89a6.826,6.826,0,1,1-13.652,0V21.113a6.826,6.826,0,0,1,13.652,0Zm-4.663-1.134a2.164,2.164,0,1,0-4.327,0v5.545h4.327Zm17.728-5.671v5.041h-.421c-1.428,0-3.864,0-3.864,3.991V39.723h-4.663V14.98h4.369l.294,2.605h.294a3.752,3.752,0,0,1,3.57-3.277Z"/><circle cx="69.249" cy="6.411" r="2.856"/></svg>