<svg id="Under_Review" data-name="Under Review" xmlns="http://www.w3.org/2000/svg" viewBox="-0.003 0 199.121 50"><path d="M15.5,4.269V32.5A7.753,7.753,0,1,1,0,32.5V4.269H4.663V33.253a3.177,3.177,0,0,0,3.108,3.319,3.144,3.144,0,0,0,3.067-3.319V4.269Zm13.61,35.454V19.979a2.164,2.164,0,1,0-4.327,0V39.723H20.122v-24.7H24.49l.294,1.891h.3a4.454,4.454,0,0,1,3.906-2.605A4.787,4.787,0,0,1,33.774,19.1V39.723ZM51.963,4.269V39.723H47.594l-.294-1.89h-.294a4.384,4.384,0,0,1-3.906,2.6,4.787,4.787,0,0,1-4.789-4.789V19.1A4.787,4.787,0,0,1,43.1,14.308a4.456,4.456,0,0,1,3.906,2.605H47.3V4.269ZM47.3,19.979a2.163,2.163,0,0,0-4.326,0V34.766a2.163,2.163,0,1,0,4.326,0Zm9.032,13.61V21.155a6.826,6.826,0,1,1,13.652,0v7.9h-8.99v5.713a2.164,2.164,0,1,0,4.327,0V31.7h4.663v1.89a6.826,6.826,0,1,1-13.652,0Zm4.662-8.065h4.327V19.979a2.164,2.164,0,0,0-4.327,0Zm17.812,14.2H74.143v-24.7h4.369l.294,2.6H79.1a3.73,3.73,0,0,1,3.528-3.319h.421v5.041h-.421c-1.428,0-3.822,0-3.822,3.991Zm15.837,0V4.269h7.729c5.167,0,7.562,3.4,7.562,7.561v5.251a4.938,4.938,0,0,1-4.663,4.747c3.444.294,4.873,3.738,4.873,5.755v12.14H105.48V26.616a2.949,2.949,0,0,0-2.94-2.94H99.306V39.723Zm4.663-19.7h3.066a2.922,2.922,0,0,0,2.94-2.94V11.032a2.94,2.94,0,0,0-2.94-2.9H99.306ZM113.63,33.589V21.155a6.826,6.826,0,1,1,13.652,0v7.9h-8.989v5.713a2.2,2.2,0,0,0,2.185,2.184,2.224,2.224,0,0,0,2.183-2.184V31.7h4.621v1.89a6.826,6.826,0,1,1-13.652,0Zm4.663-8.065h4.368V19.979a2.187,2.187,0,0,0-2.183-2.142,2.16,2.16,0,0,0-2.185,2.142Zm16.257,14.2-5.167-24.7H134.3L137.28,35.4h.294l2.983-20.374h4.915l-5.167,24.7Zm13.9-24.7h4.663v24.7h-4.663Zm8.821,18.567V21.155a6.827,6.827,0,1,1,13.653,0v7.9h-8.99v5.713a2.164,2.164,0,1,0,4.328,0V31.7h4.662v1.89a6.827,6.827,0,1,1-13.653,0Zm4.663-8.065h4.328V19.979a2.164,2.164,0,0,0-4.328,0Zm37.177-10.5-4.663,24.7h-5.713L186.3,19.349h-.294l-2.353,20.374h-5.8l-4.663-24.7h4.915L180.59,35.4h.294l2.394-20.374h5.755l2.4,20.374h.294L194.2,15.022Z"/><circle cx="150.786" cy="6.411" r="2.856"/><polygon points="199.115 15.022 194.452 39.723 188.739 39.723 186.303 19.349 186.009 19.349 183.656 39.723 177.859 39.723 173.196 15.022 178.111 15.022 180.59 35.396 180.884 35.396 183.278 15.022 189.033 15.022 191.428 35.396 191.722 35.396 194.2 15.022 199.115 15.022"/></svg>