<?xml version="1.0" encoding="UTF-8"?>
<svg id="Layer_2" data-name="Layer 2" xmlns="http://www.w3.org/2000/svg" xmlns:xlink="http://www.w3.org/1999/xlink" viewBox="0 0 800 800">
  <defs>
    <style>
      .cls-1 {
        fill: none;
      }

      .cls-2 {
        fill: #fff;
      }

      .cls-3 {
        clip-path: url(#clippath);
      }
    </style>
    <clipPath id="clippath">
      <rect class="cls-1" x="206" y="194" width="400" height="400"/>
    </clipPath>
  </defs>
  <g id="Layer_1-2" data-name="Layer 1">
    <g>
      <rect class="cls-2" width="800" height="800"/>
      <g class="cls-3">
        <path d="M605.28,288.73c-.06-1.36-.18-2.7-.3-4.07-.03-.33-.03-.68-.09-1.01-.09-.83-.21-1.63-.33-2.46-.12-.86-.21-1.69-.33-2.52-.09-.59-.21-1.19-.33-1.75-.18-1.04-.36-2.11-.56-3.14-.18-.83-.39-1.63-.56-2.46-.18-.8-.36-1.57-.53-2.37-.21-.83-.47-1.63-.71-2.46-.21-.77-.41-1.51-.65-2.28-.27-.83-.56-1.66-.86-2.49-.24-.71-.47-1.42-.71-2.14-.39-1.04-.8-2.05-1.19-3.06-.21-.5-.39-.98-.59-1.48-.48-1.1-.95-2.17-1.45-3.23-.18-.39-.36-.8-.53-1.19-.47-1.01-1.01-1.99-1.51-2.97-.24-.45-.45-.89-.68-1.34-.59-1.1-1.25-2.2-1.87-3.26-.18-.3-.33-.59-.5-.89-.68-1.13-1.4-2.23-2.14-3.32-.15-.24-.3-.48-.45-.71-.89-1.31-1.81-2.61-2.76-3.89-.89-1.19-1.81-2.37-2.76-3.53-.06-.09-.12-.18-.21-.27-18.34-22.22-46.04-36.34-77.05-36.37v-.06l-.09.06h.03c-8.61,0-16.98,1.1-24.96,3.14-4.78,1.22-9.44,2.82-13.92,4.69-1.48.62-2.97,1.31-4.42,1.99-29.47,14.18-50.85,42.43-55.56,76.01h-.06c-2.08,14.39-6.5,28.01-12.79,40.53h.21c-21.91,43.43-66.9,73.25-118.91,73.25-23.21,0-45-5.93-63.99-16.35-2.23-1.22-4.93.39-4.93,2.91v13.44h-.21v199.58h199.7v-99.81h.21v-49.9c0-27.56,22.35-49.9,49.92-49.9h49.92c8.55,0,16.83-1.1,24.76-3.14,4.78-1.25,9.44-2.82,13.92-4.69,1.48-.62,2.97-1.3,4.42-1.99,30.54-14.72,52.45-44.53,56.04-79.75.33-3.35.51-6.76.51-10.21,0-1.72-.03-3.44-.12-5.13h-.03Z"/>
      </g>
    </g>
  </g>
</svg>