<svg width="64" height="64" viewBox="0 0 64 64" fill="none" xmlns="http://www.w3.org/2000/svg">
<rect width="64" height="64" fill="white"/>
<g clip-path="url(#clip0_2504_14)">
<path d="M32.4813 57.9627C47.1066 57.9627 58.9627 46.1066 58.9627 31.4813C58.9627 16.8561 47.1066 5 32.4813 5C17.8561 5 6 16.8561 6 31.4813C6 46.1066 17.8561 57.9627 32.4813 57.9627Z" fill="#7D2AE7"/>
<path d="M32.4813 57.9627C47.1066 57.9627 58.9627 46.1066 58.9627 31.4813C58.9627 16.8561 47.1066 5 32.4813 5C17.8561 5 6 16.8561 6 31.4813C6 46.1066 17.8561 57.9627 32.4813 57.9627Z" fill="url(#paint0_radial_2504_14)"/>
<path d="M32.4813 57.9627C47.1066 57.9627 58.9627 46.1066 58.9627 31.4813C58.9627 16.8561 47.1066 5 32.4813 5C17.8561 5 6 16.8561 6 31.4813C6 46.1066 17.8561 57.9627 32.4813 57.9627Z" fill="url(#paint1_radial_2504_14)"/>
<path d="M32.4813 57.9627C47.1066 57.9627 58.9627 46.1066 58.9627 31.4813C58.9627 16.8561 47.1066 5 32.4813 5C17.8561 5 6 16.8561 6 31.4813C6 46.1066 17.8561 57.9627 32.4813 57.9627Z" fill="url(#paint2_radial_2504_14)"/>
<path d="M32.4813 57.9627C47.1066 57.9627 58.9627 46.1066 58.9627 31.4813C58.9627 16.8561 47.1066 5 32.4813 5C17.8561 5 6 16.8561 6 31.4813C6 46.1066 17.8561 57.9627 32.4813 57.9627Z" fill="url(#paint3_radial_2504_14)"/>
<path d="M52.6091 33.8834C52.5398 33.8834 52.4765 33.9282 52.4439 34.0221C52.0254 35.2163 51.46 35.9266 50.9946 35.9266C50.7272 35.9266 50.619 35.6286 50.619 35.1612C50.619 33.9917 51.3191 31.5115 51.6723 30.3808C51.7132 30.2439 51.7397 30.1215 51.7397 30.0174C51.7397 29.6887 51.56 29.5275 51.115 29.5275C50.6353 29.5275 50.119 29.7152 49.6168 30.5951C49.4433 29.8194 48.9188 29.4805 48.1859 29.4805C47.3388 29.4805 46.5203 30.0255 45.8467 30.9094C45.1732 31.7932 44.3811 32.0831 43.7852 31.9402C44.2138 30.8909 44.373 30.1071 44.373 29.5255C44.373 28.613 43.9218 28.0619 43.1932 28.0619C42.0848 28.0619 41.446 29.1192 41.446 30.2317C41.446 31.0911 41.8357 31.9748 42.6931 32.4035C41.9746 34.0283 40.9255 35.498 40.5274 35.498C40.0131 35.498 39.8619 32.9812 39.8905 31.1808C39.9089 30.1479 39.9946 30.0949 39.9946 29.7826C39.9946 29.603 39.8783 29.4805 39.4109 29.4805C38.3208 29.4805 37.9841 30.4032 37.933 31.4626C37.9166 31.8652 37.8535 32.2645 37.7453 32.6526C37.2901 34.2773 36.3511 35.5102 35.7388 35.5102C35.455 35.5102 35.3775 35.2264 35.3775 34.855C35.3775 33.6854 36.0327 32.2239 36.0327 30.9767C36.0327 30.0603 35.6306 29.4806 34.8733 29.4806C33.9813 29.4806 32.8015 30.542 31.685 32.5301C32.0523 31.0074 32.2035 29.5336 31.1155 29.5336C30.8794 29.5371 30.6477 29.5974 30.4398 29.7092C30.3701 29.742 30.3119 29.7949 30.2726 29.8611C30.2333 29.9273 30.2147 30.0038 30.2194 30.0806C30.3235 31.7014 28.913 35.8531 27.576 35.8531C27.3332 35.8531 27.2147 35.5898 27.2147 35.1653C27.2147 33.9936 27.9128 31.5196 28.2639 30.3868C28.3087 30.2398 28.3334 30.1133 28.3334 30.0031C28.3334 29.6928 28.1414 29.5336 27.7067 29.5336C27.229 29.5336 26.7106 29.7152 26.2106 30.5951C26.035 29.8194 25.5104 29.4805 24.7776 29.4805C23.5754 29.4805 22.2322 30.7523 21.6423 32.4097C20.8523 34.6223 19.2603 36.7594 17.117 36.7594C15.1717 36.7594 14.145 35.1408 14.145 32.5831C14.145 28.8906 16.8557 25.8738 18.8663 25.8738C19.8277 25.8738 20.287 26.4861 20.287 27.4251C20.287 28.562 19.6521 29.0906 19.6521 29.5234C19.6521 29.6561 19.7624 29.7867 19.9808 29.7867C20.8544 29.7867 21.8831 28.76 21.8831 27.3598C21.8831 25.9594 20.7462 24.9348 18.7357 24.9348C15.4126 24.9348 12.0692 28.2783 12.0692 32.5627C12.0692 35.9715 13.7511 38.027 16.6597 38.027C18.6438 38.027 20.3768 36.4839 21.3116 34.6835C21.4178 36.1756 22.0954 36.9554 23.1283 36.9554C24.0468 36.9554 24.7898 36.4084 25.3572 35.447C25.5757 36.4532 26.1554 36.9452 26.9086 36.9452C27.772 36.9452 28.4946 36.3982 29.1824 35.3817C29.1723 36.1798 29.3539 36.931 30.0459 36.931C30.3724 36.931 30.7623 36.8553 30.8318 36.5696C31.5604 33.5568 33.3608 31.0971 33.9119 31.0971C34.0752 31.0971 34.1201 31.2543 34.1201 31.44C34.1201 32.2586 33.5424 33.9365 33.5424 35.0082C33.5424 36.1654 34.0344 36.931 35.0509 36.931C36.1777 36.931 37.3227 35.551 38.0861 33.5344C38.325 35.4184 38.8415 36.939 39.6497 36.939C40.6417 36.939 42.4032 34.8509 43.4708 32.6403C43.8892 32.6934 44.5179 32.6791 45.1221 32.2525C44.8649 32.9036 44.7139 33.6161 44.7139 34.3283C44.7139 36.3798 45.6936 36.9554 46.5366 36.9554C47.4531 36.9554 48.1962 36.4084 48.7656 35.447C48.9534 36.3145 49.4331 36.9431 50.3149 36.9431C51.6947 36.9431 52.8929 35.5326 52.8929 34.3753C52.8929 34.0692 52.7623 33.8834 52.6091 33.8834ZM23.9693 35.8184C23.412 35.8184 23.1936 35.2571 23.1936 34.4202C23.1936 32.9669 24.1877 30.5399 25.2389 30.5399C25.6982 30.5399 25.8717 31.0808 25.8717 31.7422C25.8717 33.2179 24.9267 35.8184 23.9693 35.8184ZM43.0564 31.4809C42.7237 31.0849 42.6033 30.546 42.6033 30.0663C42.6033 29.4745 42.8197 28.9743 43.0788 28.9743C43.3381 28.9743 43.4177 29.2295 43.4177 29.5846C43.4177 30.1786 43.2054 31.0461 43.0564 31.4809ZM47.3776 35.8184C46.8205 35.8184 46.602 35.1734 46.602 34.4202C46.602 33.0179 47.5961 30.5399 48.6554 30.5399C49.1147 30.5399 49.278 31.0768 49.278 31.7422C49.278 33.2179 48.3492 35.8184 47.3776 35.8184Z" fill="white"/>
</g>
<defs>
<radialGradient id="paint0_radial_2504_14" cx="0" cy="0" r="1" gradientUnits="userSpaceOnUse" gradientTransform="translate(16.2149 51.9419) rotate(-49.416) scale(40.9622)">
<stop stop-color="#6420FF"/>
<stop offset="1" stop-color="#6420FF" stop-opacity="0"/>
</radialGradient>
<radialGradient id="paint1_radial_2504_14" cx="0" cy="0" r="1" gradientUnits="userSpaceOnUse" gradientTransform="translate(20.0211 11.0209) rotate(54.703) scale(46.1924)">
<stop stop-color="#00C4CC"/>
<stop offset="1" stop-color="#00C4CC" stop-opacity="0"/>
</radialGradient>
<radialGradient id="paint2_radial_2504_14" cx="0" cy="0" r="1" gradientUnits="userSpaceOnUse" gradientTransform="translate(16.2302 51.9416) rotate(-45.1954) scale(40.4662 18.6109)">
<stop stop-color="#6420FF"/>
<stop offset="1" stop-color="#6420FF" stop-opacity="0"/>
</radialGradient>
<radialGradient id="paint3_radial_2504_14" cx="0" cy="0" r="1" gradientUnits="userSpaceOnUse" gradientTransform="translate(27.6589 12.136) rotate(66.5198) scale(41.6972 69.8523)">
<stop stop-color="#00C4CC"/>
<stop offset="1" stop-color="#00C4CC" stop-opacity="0"/>
</radialGradient>
<clipPath id="clip0_2504_14">
<rect width="53" height="53" fill="white" transform="translate(6 5)"/>
</clipPath>
</defs>
</svg>
